<svg width="80" height="97" fill="none" xmlns="http://www.w3.org/2000/svg"><g filter="url(#filter0_d)"><mask id="a" maskUnits="userSpaceOnUse" x="4" y="0" width="11" height="11"><path d="M9.228 10.596c2.888 0 5.229-2.334 5.229-5.213 0-2.878-2.341-5.212-5.229-5.212C6.341.17 4 2.505 4 5.383c0 2.88 2.34 5.213 5.228 5.213z" fill="url(#paint0_linear)"/></mask><g mask="url(#a)"><path d="M9.228 10.596c2.888 0 5.229-2.334 5.229-5.213 0-2.878-2.341-5.212-5.229-5.212C6.341.17 4 2.505 4 5.383c0 2.88 2.34 5.213 5.228 5.213z" fill="url(#paint1_linear)"/></g></g><g filter="url(#filter1_d)"><mask id="b" maskUnits="userSpaceOnUse" x="34" y="0" width="11" height="11"><path d="M39.51 10.596c2.887 0 5.228-2.334 5.228-5.213 0-2.878-2.341-5.212-5.228-5.212-2.888 0-5.229 2.334-5.229 5.212 0 2.88 2.34 5.213 5.229 5.213z" fill="url(#paint2_linear)"/></mask><g mask="url(#b)"><path d="M39.51 10.596c2.887 0 5.228-2.334 5.228-5.213 0-2.878-2.341-5.212-5.228-5.212-2.888 0-5.229 2.334-5.229 5.212 0 2.88 2.34 5.213 5.229 5.213z" fill="url(#paint3_linear)"/></g></g><mask id="c" maskUnits="userSpaceOnUse" x="64" y="0" width="12" height="11"><path d="M69.79 10.596c2.888 0 5.229-2.334 5.229-5.213 0-2.878-2.34-5.212-5.229-5.212-2.887 0-5.228 2.334-5.228 5.212 0 2.88 2.341 5.213 5.228 5.213z" fill="url(#paint4_linear)"/></mask><g mask="url(#c)"><path d="M69.79 10.596c2.888 0 5.229-2.334 5.229-5.213 0-2.878-2.34-5.212-5.229-5.212-2.887 0-5.228 2.334-5.228 5.212 0 2.88 2.341 5.213 5.228 5.213z" fill="url(#paint5_linear)"/></g><g filter="url(#filter2_d)"><mask id="d" maskUnits="userSpaceOnUse" x="4" y="26" width="11" height="11"><path d="M9.228 36.713c2.888 0 5.229-2.334 5.229-5.213s-2.341-5.212-5.229-5.212C6.341 26.288 4 28.62 4 31.5c0 2.879 2.34 5.213 5.228 5.213z" fill="url(#paint6_linear)"/></mask><g mask="url(#d)"><path d="M9.228 36.713c2.888 0 5.229-2.334 5.229-5.213s-2.341-5.212-5.229-5.212C6.341 26.288 4 28.62 4 31.5c0 2.879 2.34 5.213 5.228 5.213z" fill="url(#paint7_linear)"/></g></g><g filter="url(#filter3_d)"><mask id="e" maskUnits="userSpaceOnUse" x="34" y="26" width="11" height="11"><path d="M39.51 36.713c2.887 0 5.228-2.334 5.228-5.213s-2.341-5.212-5.228-5.212c-2.888 0-5.229 2.333-5.229 5.212 0 2.879 2.34 5.213 5.229 5.213z" fill="url(#paint8_linear)"/></mask><g mask="url(#e)"><path d="M39.51 36.713c2.887 0 5.228-2.334 5.228-5.213s-2.341-5.212-5.228-5.212c-2.888 0-5.229 2.333-5.229 5.212 0 2.879 2.34 5.213 5.229 5.213z" fill="url(#paint9_linear)"/></g></g><g filter="url(#filter4_d)"><mask id="f" maskUnits="userSpaceOnUse" x="64" y="26" width="12" height="11"><path d="M69.79 36.713c2.888 0 5.229-2.334 5.229-5.213s-2.34-5.212-5.229-5.212c-2.887 0-5.228 2.333-5.228 5.212 0 2.879 2.341 5.213 5.228 5.213z" fill="url(#paint10_linear)"/></mask><g mask="url(#f)"><path d="M69.79 36.713c2.888 0 5.229-2.334 5.229-5.213s-2.34-5.212-5.229-5.212c-2.887 0-5.228 2.333-5.228 5.212 0 2.879 2.341 5.213 5.228 5.213z" fill="url(#paint11_linear)"/></g></g><g filter="url(#filter5_d)"><mask id="g" maskUnits="userSpaceOnUse" x="4" y="52" width="11" height="11"><path d="M9.228 62.883c2.888 0 5.229-2.333 5.229-5.212 0-2.879-2.341-5.212-5.229-5.212C6.341 52.459 4 54.791 4 57.67c0 2.879 2.34 5.212 5.228 5.212z" fill="url(#paint12_linear)"/></mask><g mask="url(#g)"><path d="M9.228 62.883c2.888 0 5.229-2.333 5.229-5.212 0-2.879-2.341-5.212-5.229-5.212C6.341 52.459 4 54.791 4 57.67c0 2.879 2.34 5.212 5.228 5.212z" fill="url(#paint13_linear)"/></g></g><g filter="url(#filter6_d)"><mask id="h" maskUnits="userSpaceOnUse" x="34" y="52" width="11" height="11"><path d="M39.51 62.883c2.887 0 5.228-2.333 5.228-5.212 0-2.879-2.341-5.212-5.228-5.212-2.888 0-5.229 2.333-5.229 5.212 0 2.879 2.34 5.212 5.229 5.212z" fill="url(#paint14_linear)"/></mask><g mask="url(#h)"><path d="M39.51 62.883c2.887 0 5.228-2.333 5.228-5.212 0-2.879-2.341-5.212-5.228-5.212-2.888 0-5.229 2.333-5.229 5.212 0 2.879 2.34 5.212 5.229 5.212z" fill="url(#paint15_linear)"/></g></g><g filter="url(#filter7_d)"><mask id="i" maskUnits="userSpaceOnUse" x="64" y="52" width="12" height="11"><path d="M69.79 62.883c2.888 0 5.229-2.333 5.229-5.212 0-2.879-2.34-5.212-5.229-5.212-2.887 0-5.228 2.333-5.228 5.212 0 2.879 2.341 5.212 5.228 5.212z" fill="url(#paint16_linear)"/></mask><g mask="url(#i)"><path d="M69.79 62.883c2.888 0 5.229-2.333 5.229-5.212 0-2.879-2.34-5.212-5.229-5.212-2.887 0-5.228 2.333-5.228 5.212 0 2.879 2.341 5.212 5.228 5.212z" fill="url(#paint17_linear)"/></g></g><g filter="url(#filter8_d)"><mask id="j" maskUnits="userSpaceOnUse" x="4" y="78" width="11" height="11"><path d="M9.228 89c2.888 0 5.229-2.334 5.229-5.213 0-2.878-2.341-5.212-5.229-5.212C6.341 78.575 4 80.909 4 83.787 4 86.667 6.34 89 9.228 89z" fill="url(#paint18_linear)"/></mask><g mask="url(#j)"><path d="M9.228 89c2.888 0 5.229-2.334 5.229-5.213 0-2.878-2.341-5.212-5.229-5.212C6.341 78.575 4 80.909 4 83.787 4 86.667 6.34 89 9.228 89z" fill="url(#paint19_linear)"/></g></g><g filter="url(#filter9_d)"><mask id="k" maskUnits="userSpaceOnUse" x="34" y="78" width="11" height="11"><path d="M39.51 89c2.887 0 5.228-2.334 5.228-5.213 0-2.878-2.341-5.212-5.228-5.212-2.888 0-5.229 2.334-5.229 5.212 0 2.88 2.34 5.213 5.229 5.213z" fill="url(#paint20_linear)"/></mask><g mask="url(#k)"><path d="M39.51 89c2.887 0 5.228-2.334 5.228-5.213 0-2.878-2.341-5.212-5.228-5.212-2.888 0-5.229 2.334-5.229 5.212 0 2.88 2.34 5.213 5.229 5.213z" fill="url(#paint21_linear)"/></g></g><g filter="url(#filter10_d)"><mask id="l" maskUnits="userSpaceOnUse" x="64" y="78" width="12" height="11"><path d="M69.79 89c2.888 0 5.229-2.334 5.229-5.213 0-2.878-2.34-5.212-5.229-5.212-2.887 0-5.228 2.334-5.228 5.212 0 2.88 2.341 5.213 5.228 5.213z" fill="url(#paint22_linear)"/></mask><g mask="url(#l)"><path d="M69.79 89c2.888 0 5.229-2.334 5.229-5.213 0-2.878-2.34-5.212-5.229-5.212-2.887 0-5.228 2.334-5.228 5.212 0 2.88 2.341 5.213 5.228 5.213z" fill="url(#paint23_linear)"/></g></g><defs><linearGradient id="paint0_linear" x1="58.996" y1="131.303" x2="-12.405" y2="-50.499" gradientUnits="userSpaceOnUse"><stop stop-color="#fff"/><stop offset="1" stop-color="#fff"/></linearGradient><linearGradient id="paint1_linear" x1="58.996" y1="131.303" x2="-12.405" y2="-50.499" gradientUnits="userSpaceOnUse"><stop stop-color="#fff"/><stop offset="1" stop-color="#fff"/></linearGradient><linearGradient id="paint2_linear" x1="89.277" y1="131.303" x2="17.877" y2="-50.499" gradientUnits="userSpaceOnUse"><stop stop-color="#fff"/><stop offset="1" stop-color="#fff"/></linearGradient><linearGradient id="paint3_linear" x1="89.277" y1="131.303" x2="17.877" y2="-50.499" gradientUnits="userSpaceOnUse"><stop stop-color="#fff"/><stop offset="1" stop-color="#fff"/></linearGradient><linearGradient id="paint4_linear" x1="119.558" y1="131.303" x2="48.158" y2="-50.499" gradientUnits="userSpaceOnUse"><stop stop-color="#fff"/><stop offset="1" stop-color="#fff"/></linearGradient><linearGradient id="paint5_linear" x1="119.558" y1="131.303" x2="48.158" y2="-50.499" gradientUnits="userSpaceOnUse"><stop stop-color="#fff"/><stop offset="1" stop-color="#fff"/></linearGradient><linearGradient id="paint6_linear" x1="58.996" y1="157.421" x2="-12.406" y2="-24.382" gradientUnits="userSpaceOnUse"><stop stop-color="#fff"/><stop offset="1" stop-color="#fff"/></linearGradient><linearGradient id="paint7_linear" x1="58.996" y1="157.421" x2="-12.406" y2="-24.382" gradientUnits="userSpaceOnUse"><stop stop-color="#fff"/><stop offset="1" stop-color="#fff"/></linearGradient><linearGradient id="paint8_linear" x1="89.277" y1="157.421" x2="17.875" y2="-24.382" gradientUnits="userSpaceOnUse"><stop stop-color="#fff"/><stop offset="1" stop-color="#fff"/></linearGradient><linearGradient id="paint9_linear" x1="89.277" y1="157.421" x2="17.875" y2="-24.382" gradientUnits="userSpaceOnUse"><stop stop-color="#fff"/><stop offset="1" stop-color="#fff"/></linearGradient><linearGradient id="paint10_linear" x1="119.558" y1="157.421" x2="48.157" y2="-24.382" gradientUnits="userSpaceOnUse"><stop stop-color="#fff"/><stop offset="1" stop-color="#fff"/></linearGradient><linearGradient id="paint11_linear" x1="119.558" y1="157.421" x2="48.157" y2="-24.382" gradientUnits="userSpaceOnUse"><stop stop-color="#fff"/><stop offset="1" stop-color="#fff"/></linearGradient><linearGradient id="paint12_linear" x1="58.996" y1="183.592" x2="-12.406" y2="1.789" gradientUnits="userSpaceOnUse"><stop stop-color="#fff"/><stop offset="1" stop-color="#fff"/></linearGradient><linearGradient id="paint13_linear" x1="58.996" y1="183.592" x2="-12.406" y2="1.789" gradientUnits="userSpaceOnUse"><stop stop-color="#fff"/><stop offset="1" stop-color="#fff"/></linearGradient><linearGradient id="paint14_linear" x1="89.277" y1="183.592" x2="17.875" y2="1.788" gradientUnits="userSpaceOnUse"><stop stop-color="#fff"/><stop offset="1" stop-color="#fff"/></linearGradient><linearGradient id="paint15_linear" x1="89.277" y1="183.592" x2="17.875" y2="1.788" gradientUnits="userSpaceOnUse"><stop stop-color="#fff"/><stop offset="1" stop-color="#fff"/></linearGradient><linearGradient id="paint16_linear" x1="119.558" y1="183.592" x2="48.157" y2="1.788" gradientUnits="userSpaceOnUse"><stop stop-color="#fff"/><stop offset="1" stop-color="#fff"/></linearGradient><linearGradient id="paint17_linear" x1="119.558" y1="183.592" x2="48.157" y2="1.788" gradientUnits="userSpaceOnUse"><stop stop-color="#fff"/><stop offset="1" stop-color="#fff"/></linearGradient><linearGradient id="paint18_linear" x1="58.996" y1="209.709" x2="-12.406" y2="27.905" gradientUnits="userSpaceOnUse"><stop stop-color="#fff"/><stop offset="1" stop-color="#fff"/></linearGradient><linearGradient id="paint19_linear" x1="58.996" y1="209.709" x2="-12.406" y2="27.905" gradientUnits="userSpaceOnUse"><stop stop-color="#fff"/><stop offset="1" stop-color="#fff"/></linearGradient><linearGradient id="paint20_linear" x1="89.277" y1="209.709" x2="17.875" y2="27.905" gradientUnits="userSpaceOnUse"><stop stop-color="#fff"/><stop offset="1" stop-color="#fff"/></linearGradient><linearGradient id="paint21_linear" x1="89.277" y1="209.709" x2="17.875" y2="27.905" gradientUnits="userSpaceOnUse"><stop stop-color="#fff"/><stop offset="1" stop-color="#fff"/></linearGradient><linearGradient id="paint22_linear" x1="119.558" y1="209.709" x2="48.157" y2="27.905" gradientUnits="userSpaceOnUse"><stop stop-color="#fff"/><stop offset="1" stop-color="#fff"/></linearGradient><linearGradient id="paint23_linear" x1="119.558" y1="209.709" x2="48.157" y2="27.905" gradientUnits="userSpaceOnUse"><stop stop-color="#fff"/><stop offset="1" stop-color="#fff"/></linearGradient><filter id="filter0_d" x="0" y=".171" width="18.457" height="18.425" filterUnits="userSpaceOnUse" color-interpolation-filters="sRGB"><feFlood flood-opacity="0" result="BackgroundImageFix"/><feColorMatrix in="SourceAlpha" values="0 0 0 0 0 0 0 0 0 0 0 0 0 0 0 0 0 0 127 0"/><feOffset dy="4"/><feGaussianBlur stdDeviation="2"/><feColorMatrix values="0 0 0 0 0 0 0 0 0 0 0 0 0 0 0 0 0 0 0.25 0"/><feBlend in2="BackgroundImageFix" result="effect1_dropShadow"/><feBlend in="SourceGraphic" in2="effect1_dropShadow" result="shape"/></filter><filter id="filter1_d" x="30.281" y=".171" width="18.457" height="18.425" filterUnits="userSpaceOnUse" color-interpolation-filters="sRGB"><feFlood flood-opacity="0" result="BackgroundImageFix"/><feColorMatrix in="SourceAlpha" values="0 0 0 0 0 0 0 0 0 0 0 0 0 0 0 0 0 0 127 0"/><feOffset dy="4"/><feGaussianBlur stdDeviation="2"/><feColorMatrix values="0 0 0 0 0 0 0 0 0 0 0 0 0 0 0 0 0 0 0.25 0"/><feBlend in2="BackgroundImageFix" result="effect1_dropShadow"/><feBlend in="SourceGraphic" in2="effect1_dropShadow" result="shape"/></filter><filter id="filter2_d" x="0" y="26.288" width="18.457" height="18.425" filterUnits="userSpaceOnUse" color-interpolation-filters="sRGB"><feFlood flood-opacity="0" result="BackgroundImageFix"/><feColorMatrix in="SourceAlpha" values="0 0 0 0 0 0 0 0 0 0 0 0 0 0 0 0 0 0 127 0"/><feOffset dy="4"/><feGaussianBlur stdDeviation="2"/><feColorMatrix values="0 0 0 0 0 0 0 0 0 0 0 0 0 0 0 0 0 0 0.25 0"/><feBlend in2="BackgroundImageFix" result="effect1_dropShadow"/><feBlend in="SourceGraphic" in2="effect1_dropShadow" result="shape"/></filter><filter id="filter3_d" x="30.281" y="26.288" width="18.457" height="18.425" filterUnits="userSpaceOnUse" color-interpolation-filters="sRGB"><feFlood flood-opacity="0" result="BackgroundImageFix"/><feColorMatrix in="SourceAlpha" values="0 0 0 0 0 0 0 0 0 0 0 0 0 0 0 0 0 0 127 0"/><feOffset dy="4"/><feGaussianBlur stdDeviation="2"/><feColorMatrix values="0 0 0 0 0 0 0 0 0 0 0 0 0 0 0 0 0 0 0.25 0"/><feBlend in2="BackgroundImageFix" result="effect1_dropShadow"/><feBlend in="SourceGraphic" in2="effect1_dropShadow" result="shape"/></filter><filter id="filter4_d" x="60.562" y="26.288" width="18.457" height="18.425" filterUnits="userSpaceOnUse" color-interpolation-filters="sRGB"><feFlood flood-opacity="0" result="BackgroundImageFix"/><feColorMatrix in="SourceAlpha" values="0 0 0 0 0 0 0 0 0 0 0 0 0 0 0 0 0 0 127 0"/><feOffset dy="4"/><feGaussianBlur stdDeviation="2"/><feColorMatrix values="0 0 0 0 0 0 0 0 0 0 0 0 0 0 0 0 0 0 0.25 0"/><feBlend in2="BackgroundImageFix" result="effect1_dropShadow"/><feBlend in="SourceGraphic" in2="effect1_dropShadow" result="shape"/></filter><filter id="filter5_d" x="0" y="52.459" width="18.457" height="18.425" filterUnits="userSpaceOnUse" color-interpolation-filters="sRGB"><feFlood flood-opacity="0" result="BackgroundImageFix"/><feColorMatrix in="SourceAlpha" values="0 0 0 0 0 0 0 0 0 0 0 0 0 0 0 0 0 0 127 0"/><feOffset dy="4"/><feGaussianBlur stdDeviation="2"/><feColorMatrix values="0 0 0 0 0 0 0 0 0 0 0 0 0 0 0 0 0 0 0.25 0"/><feBlend in2="BackgroundImageFix" result="effect1_dropShadow"/><feBlend in="SourceGraphic" in2="effect1_dropShadow" result="shape"/></filter><filter id="filter6_d" x="30.281" y="52.459" width="18.457" height="18.425" filterUnits="userSpaceOnUse" color-interpolation-filters="sRGB"><feFlood flood-opacity="0" result="BackgroundImageFix"/><feColorMatrix in="SourceAlpha" values="0 0 0 0 0 0 0 0 0 0 0 0 0 0 0 0 0 0 127 0"/><feOffset dy="4"/><feGaussianBlur stdDeviation="2"/><feColorMatrix values="0 0 0 0 0 0 0 0 0 0 0 0 0 0 0 0 0 0 0.25 0"/><feBlend in2="BackgroundImageFix" result="effect1_dropShadow"/><feBlend in="SourceGraphic" in2="effect1_dropShadow" result="shape"/></filter><filter id="filter7_d" x="60.562" y="52.459" width="18.457" height="18.425" filterUnits="userSpaceOnUse" color-interpolation-filters="sRGB"><feFlood flood-opacity="0" result="BackgroundImageFix"/><feColorMatrix in="SourceAlpha" values="0 0 0 0 0 0 0 0 0 0 0 0 0 0 0 0 0 0 127 0"/><feOffset dy="4"/><feGaussianBlur stdDeviation="2"/><feColorMatrix values="0 0 0 0 0 0 0 0 0 0 0 0 0 0 0 0 0 0 0.25 0"/><feBlend in2="BackgroundImageFix" result="effect1_dropShadow"/><feBlend in="SourceGraphic" in2="effect1_dropShadow" result="shape"/></filter><filter id="filter8_d" x="0" y="78.575" width="18.457" height="18.425" filterUnits="userSpaceOnUse" color-interpolation-filters="sRGB"><feFlood flood-opacity="0" result="BackgroundImageFix"/><feColorMatrix in="SourceAlpha" values="0 0 0 0 0 0 0 0 0 0 0 0 0 0 0 0 0 0 127 0"/><feOffset dy="4"/><feGaussianBlur stdDeviation="2"/><feColorMatrix values="0 0 0 0 0 0 0 0 0 0 0 0 0 0 0 0 0 0 0.25 0"/><feBlend in2="BackgroundImageFix" result="effect1_dropShadow"/><feBlend in="SourceGraphic" in2="effect1_dropShadow" result="shape"/></filter><filter id="filter9_d" x="30.281" y="78.575" width="18.457" height="18.425" filterUnits="userSpaceOnUse" color-interpolation-filters="sRGB"><feFlood flood-opacity="0" result="BackgroundImageFix"/><feColorMatrix in="SourceAlpha" values="0 0 0 0 0 0 0 0 0 0 0 0 0 0 0 0 0 0 127 0"/><feOffset dy="4"/><feGaussianBlur stdDeviation="2"/><feColorMatrix values="0 0 0 0 0 0 0 0 0 0 0 0 0 0 0 0 0 0 0.25 0"/><feBlend in2="BackgroundImageFix" result="effect1_dropShadow"/><feBlend in="SourceGraphic" in2="effect1_dropShadow" result="shape"/></filter><filter id="filter10_d" x="60.562" y="78.575" width="18.457" height="18.425" filterUnits="userSpaceOnUse" color-interpolation-filters="sRGB"><feFlood flood-opacity="0" result="BackgroundImageFix"/><feColorMatrix in="SourceAlpha" values="0 0 0 0 0 0 0 0 0 0 0 0 0 0 0 0 0 0 127 0"/><feOffset dy="4"/><feGaussianBlur stdDeviation="2"/><feColorMatrix values="0 0 0 0 0 0 0 0 0 0 0 0 0 0 0 0 0 0 0.25 0"/><feBlend in2="BackgroundImageFix" result="effect1_dropShadow"/><feBlend in="SourceGraphic" in2="effect1_dropShadow" result="shape"/></filter></defs></svg>